<svg xmlns="http://www.w3.org/2000/svg" xmlns:xlink="http://www.w3.org/1999/xlink" version="1.1" xml:space="preserve" viewBox="25.02 58.22 424.77 111.01">
<desc>Created with Fabric.js 4.6.0</desc>
<defs>
</defs>
<g transform="matrix(0.52 0 0 0.58 72.91 85.44)" id="VJBtKHmrJzKzuATk-JOww">
<path style="stroke: rgb(0,0,0); stroke-width: 0; stroke-dasharray: none; stroke-linecap: butt; stroke-dashoffset: 0; stroke-linejoin: miter; stroke-miterlimit: 4; fill: rgb(0,0,0); fill-opacity: 0.64; fill-rule: nonzero; opacity: 1;" vector-effect="non-scaling-stroke" transform=" translate(0, 0)" d="M -92.09113 -46.93415 L 92.09113 -46.93415 L 92.09113 46.93415 L 13.197690000000009 46.93415 L 13.197690000000009 16.621420000000004 L -13.19768999999999 16.621420000000004 L -13.19768999999999 46.93415 L -92.09112999999999 46.93415 z" stroke-linecap="round"/>
</g>
<g transform="matrix(0.51 0 0 -0.57 73.53 148.79)" id="7bzmTRC7SfQaCWxK_4QMJ">
<path style="stroke: rgb(0,0,0); stroke-width: 0; stroke-dasharray: none; stroke-linecap: butt; stroke-dashoffset: 0; stroke-linejoin: miter; stroke-miterlimit: 4; fill: rgb(0,0,0); fill-opacity: 0.64; fill-rule: nonzero; opacity: 1;" vector-effect="non-scaling-stroke" transform=" translate(0, 0)" d="M -92.09113 -35.7317 L 92.09113 -35.7317 L 92.09113 35.73169000000001 L 13.197690000000009 35.73169000000001 L 13.197690000000009 5.418960000000009 L -13.19768999999999 5.418960000000009 L -13.19768999999999 35.73169000000001 L -92.09112999999999 35.73169000000001 z" stroke-linecap="round"/>
</g>
<g transform="matrix(0.52 0 0 0.58 182.91 85.51)" id="3FrP7RGBLQwN1jFeM0oMR">
<path style="stroke: rgb(0,0,0); stroke-width: 0; stroke-dasharray: none; stroke-linecap: butt; stroke-dashoffset: 0; stroke-linejoin: miter; stroke-miterlimit: 4; fill: rgb(0,0,0); fill-opacity: 0.64; fill-rule: nonzero; opacity: 1;" vector-effect="non-scaling-stroke" transform=" translate(0, 0)" d="M -92.09113 -46.93415 L 92.09113 -46.93415 L 92.09113 46.93415 L 13.197690000000009 46.93415 L 13.197690000000009 16.621420000000004 L -13.19768999999999 16.621420000000004 L -13.19768999999999 46.93415 L -92.09112999999999 46.93415 z" stroke-linecap="round"/>
</g>
<g transform="matrix(0.51 0 0 -0.57 183.53 148.86)" id="fGHXtzlmZzjVMOMUAkXTz">
<path style="stroke: rgb(0,0,0); stroke-width: 0; stroke-dasharray: none; stroke-linecap: butt; stroke-dashoffset: 0; stroke-linejoin: miter; stroke-miterlimit: 4; fill: rgb(0,0,0); fill-opacity: 0.64; fill-rule: nonzero; opacity: 1;" vector-effect="non-scaling-stroke" transform=" translate(0, 0)" d="M -92.09113 -35.7317 L 92.09113 -35.7317 L 92.09113 35.73169000000001 L 13.197690000000009 35.73169000000001 L 13.197690000000009 5.418960000000009 L -13.19768999999999 5.418960000000009 L -13.19768999999999 35.73169000000001 L -92.09112999999999 35.73169000000001 z" stroke-linecap="round"/>
</g>
<g transform="matrix(0.52 0 0 0.58 291.91 85.51)" id="XKL-u4y-dmHxaYbDLwLiD">
<path style="stroke: rgb(0,0,0); stroke-width: 0; stroke-dasharray: none; stroke-linecap: butt; stroke-dashoffset: 0; stroke-linejoin: miter; stroke-miterlimit: 4; fill: rgb(0,0,0); fill-opacity: 0.64; fill-rule: nonzero; opacity: 1;" vector-effect="non-scaling-stroke" transform=" translate(0, 0)" d="M -92.09113 -46.93415 L 92.09113 -46.93415 L 92.09113 46.93415 L 13.197690000000009 46.93415 L 13.197690000000009 16.621420000000004 L -13.19768999999999 16.621420000000004 L -13.19768999999999 46.93415 L -92.09112999999999 46.93415 z" stroke-linecap="round"/>
</g>
<g transform="matrix(0.51 0 0 -0.57 292.53 148.86)" id="_fGaHA7EWGAhcbg-aBUCQ">
<path style="stroke: rgb(0,0,0); stroke-width: 0; stroke-dasharray: none; stroke-linecap: butt; stroke-dashoffset: 0; stroke-linejoin: miter; stroke-miterlimit: 4; fill: rgb(0,0,0); fill-opacity: 0.64; fill-rule: nonzero; opacity: 1;" vector-effect="non-scaling-stroke" transform=" translate(0, 0)" d="M -92.09113 -35.7317 L 92.09113 -35.7317 L 92.09113 35.73169000000001 L 13.197690000000009 35.73169000000001 L 13.197690000000009 5.418960000000009 L -13.19768999999999 5.418960000000009 L -13.19768999999999 35.73169000000001 L -92.09112999999999 35.73169000000001 z" stroke-linecap="round"/>
</g>
<g transform="matrix(0.52 0 0 0.58 401.91 85.51)" id="Ds1J5agD6W_8sVmZEW3JJ">
<path style="stroke: rgb(0,0,0); stroke-width: 0; stroke-dasharray: none; stroke-linecap: butt; stroke-dashoffset: 0; stroke-linejoin: miter; stroke-miterlimit: 4; fill: rgb(0,0,0); fill-opacity: 0.64; fill-rule: nonzero; opacity: 1;" vector-effect="non-scaling-stroke" transform=" translate(0, 0)" d="M -92.09113 -46.93415 L 92.09113 -46.93415 L 92.09113 46.93415 L 13.197690000000009 46.93415 L 13.197690000000009 16.621420000000004 L -13.19768999999999 16.621420000000004 L -13.19768999999999 46.93415 L -92.09112999999999 46.93415 z" stroke-linecap="round"/>
</g>
<g transform="matrix(0.51 0 0 -0.57 402.53 148.86)" id="xtykFAjzhPpirUcgOMsYW">
<path style="stroke: rgb(0,0,0); stroke-width: 0; stroke-dasharray: none; stroke-linecap: butt; stroke-dashoffset: 0; stroke-linejoin: miter; stroke-miterlimit: 4; fill: rgb(0,0,0); fill-opacity: 0.64; fill-rule: nonzero; opacity: 1;" vector-effect="non-scaling-stroke" transform=" translate(0, 0)" d="M -92.09113 -35.7317 L 92.09113 -35.7317 L 92.09113 35.73169000000001 L 13.197690000000009 35.73169000000001 L 13.197690000000009 5.418960000000009 L -13.19768999999999 5.418960000000009 L -13.19768999999999 35.73169000000001 L -92.09112999999999 35.73169000000001 z" stroke-linecap="round"/>
</g>
</svg>